<svg width="35" height="35" viewBox="0 0 35 35" fill="none" xmlns="http://www.w3.org/2000/svg">
<path d="M19.25 12.25H16.6075C15.505 12.25 14.42 12.775 13.825 13.475L12.25 8.75H7.2275L3.045 21H6.0025L7.2975 17.5H12.25V24.5H3.5C1.575 24.5 0 22.925 0 21V8.75C0 6.825 1.575 5.25 3.5 5.25H15.75C17.675 5.25 19.25 6.825 19.25 8.75V12.25ZM11.3925 15.75H7.8575L9.6075 10.6225L11.3925 15.75ZM17.5 14H29.75C31.675 14 33.25 15.575 33.25 17.5V29.75C33.25 31.675 31.675 33.25 29.75 33.25H17.5C15.575 33.25 14 31.675 14 29.75V17.5C14 15.575 15.575 14 17.5 14ZM30.1875 22.75V20.86H24.64V17.0625H22.61V20.86H17.0625V22.75H19.3025C19.495 24.2375 20.2825 25.9875 21.5425 27.335C20.02 27.965 18.235 28.42 17.5 28.42C17.4825 28.455 17.885 30.1175 17.85 30.975C19.32 30.975 21.7175 30.1 23.59 28.9625C25.4975 30.1 27.93 30.975 29.435 30.975C29.4 30.1175 29.785 28.455 29.785 28.42C29.0325 28.42 27.1775 27.9475 25.62 27.3175C26.845 25.97 27.615 24.22 27.8075 22.75H30.1875ZM23.52 26.1275C22.645 25.3225 22.0325 24.15 21.7525 22.75H25.41C25.1125 24.15 24.5175 25.3225 23.66 26.1275L23.59 26.18C23.59 26.18 23.5375 26.145 23.52 26.1275Z" fill="#18CD98"/>
</svg>
