<svg width="69" height="69" viewBox="0 0 69 69" fill="none" xmlns="http://www.w3.org/2000/svg">
<g filter="url(#filter0_dd_51_152)">
<circle cx="34.5" cy="34.5" r="28.5" fill="#3CB184"/>
</g>
<circle cx="34.5002" cy="34.5" r="22.1667" fill="#F7FCFB"/>
<path d="M23 23H47" stroke="#3CB184" stroke-width="2" stroke-linecap="round"/>
<path fill-rule="evenodd" clip-rule="evenodd" d="M44.3332 23H25.6665V42.7333C25.6665 44.2267 25.6665 44.9733 25.9572 45.544C26.2128 46.0457 26.6208 46.4537 27.1225 46.7093C27.6932 47 28.4398 47 29.9332 47H36.0132C36.1252 47 36.1812 47 36.2238 46.9787C36.2618 46.9594 36.2926 46.9286 36.3118 46.8907C36.3332 46.848 36.3332 46.792 36.3332 46.68V43.2667C36.3332 41.7733 36.3332 41.0267 36.6238 40.456C36.8795 39.9543 37.2874 39.5463 37.7892 39.2907C38.3598 39 39.1065 39 40.5998 39H44.0132C44.1252 39 44.1812 39 44.2238 38.9787C44.2618 38.9594 44.2926 38.9286 44.3118 38.8907C44.3332 38.848 44.3332 38.792 44.3332 38.68V23ZM33.6665 36.3333V31.552L31.9425 33.276C31.691 33.5189 31.3542 33.6533 31.0046 33.6502C30.655 33.6472 30.3206 33.507 30.0734 33.2598C29.8262 33.0125 29.686 32.6781 29.6829 32.3285C29.6799 31.9789 29.8143 31.6421 30.0572 31.3907L33.9158 27.532C33.9398 27.508 33.9652 27.4844 33.9918 27.4613C34.1168 27.3164 34.2715 27.2001 34.4454 27.1203C34.6194 27.0406 34.8085 26.9993 34.9998 26.9993C35.1912 26.9993 35.3803 27.0406 35.5542 27.1203C35.7282 27.2001 35.8829 27.3164 36.0078 27.4613C36.0345 27.4844 36.0598 27.508 36.0838 27.532L39.9425 31.3907C40.1854 31.6421 40.3198 31.9789 40.3167 32.3285C40.3137 32.6781 40.1735 33.0125 39.9263 33.2598C39.6791 33.507 39.3446 33.6472 38.995 33.6502C38.6454 33.6533 38.3086 33.5189 38.0572 33.276L36.3332 31.552V36.3333C36.3332 36.687 36.1927 37.0261 35.9426 37.2761C35.6926 37.5262 35.3535 37.6667 34.9998 37.6667C34.6462 37.6667 34.3071 37.5262 34.057 37.2761C33.807 37.0261 33.6665 36.687 33.6665 36.3333Z" fill="#3CB184"/>
<path d="M39.3413 46.6587L43.992 42.008C44.0199 41.98 44.039 41.9444 44.0467 41.9056C44.0544 41.8669 44.0504 41.8267 44.0353 41.7902C44.0202 41.7536 43.9945 41.7224 43.9617 41.7004C43.9288 41.6785 43.8902 41.6667 43.8507 41.6667H39.6667C39.4899 41.6667 39.3203 41.7369 39.1953 41.8619C39.0702 41.987 39 42.1565 39 42.3333V46.5173C39 46.6947 39.216 46.784 39.3413 46.6587Z" fill="#3CB184"/>
<defs>
<filter id="filter0_dd_51_152" x="0" y="0" width="69" height="69" filterUnits="userSpaceOnUse" color-interpolation-filters="sRGB">
<feFlood flood-opacity="0" result="BackgroundImageFix"/>
<feColorMatrix in="SourceAlpha" type="matrix" values="0 0 0 0 0 0 0 0 0 0 0 0 0 0 0 0 0 0 127 0" result="hardAlpha"/>
<feOffset dx="2" dy="2"/>
<feGaussianBlur stdDeviation="2"/>
<feComposite in2="hardAlpha" operator="out"/>
<feColorMatrix type="matrix" values="0 0 0 0 0 0 0 0 0 0 0 0 0 0 0 0 0 0 0.25 0"/>
<feBlend mode="normal" in2="BackgroundImageFix" result="effect1_dropShadow_51_152"/>
<feColorMatrix in="SourceAlpha" type="matrix" values="0 0 0 0 0 0 0 0 0 0 0 0 0 0 0 0 0 0 127 0" result="hardAlpha"/>
<feOffset dx="-2" dy="-2"/>
<feGaussianBlur stdDeviation="2"/>
<feComposite in2="hardAlpha" operator="out"/>
<feColorMatrix type="matrix" values="0 0 0 0 0 0 0 0 0 0 0 0 0 0 0 0 0 0 0.25 0"/>
<feBlend mode="normal" in2="effect1_dropShadow_51_152" result="effect2_dropShadow_51_152"/>
<feBlend mode="normal" in="SourceGraphic" in2="effect2_dropShadow_51_152" result="shape"/>
</filter>
</defs>
</svg>
