<svg width="100" height="130" viewBox="0 0 100 130" fill="none" xmlns="http://www.w3.org/2000/svg">
<circle cx="49.5" cy="45.5" r="45.5" fill="#EFFCF0"/>
<path d="M50.6375 34.5042C47.6997 34.5042 44.7907 35.0828 42.0765 36.2071C39.3624 37.3313 36.8963 38.9791 34.8189 41.0564C32.7416 43.1338 31.0938 45.5999 29.9695 48.3141C28.8453 51.0282 28.2667 53.9372 28.2667 56.875L50.6375 56.875L50.6375 34.5042Z" fill="#95F0BB"/>
<path d="M73.0083 34.5042C73.0083 31.5664 72.4297 28.6574 71.3055 25.9432C70.1812 23.2291 68.5334 20.7629 66.4561 18.6856C64.3787 16.6083 61.9126 14.9604 59.1984 13.8362C56.4843 12.712 53.5753 12.1333 50.6375 12.1333L50.6375 34.5042H73.0083Z" fill="#3CB184"/>
<path d="M28.2667 56.875C28.2667 59.8128 28.8453 62.7218 29.9696 65.436C31.0938 68.1501 32.7416 70.6163 34.819 72.6936C36.8963 74.7709 39.3624 76.4187 42.0766 77.543C44.7907 78.6672 47.6998 79.2458 50.6375 79.2458L50.6375 56.875H28.2667Z" fill="#18CD98"/>
<path d="M50.6375 56.875C53.5753 56.875 56.4843 56.2964 59.1985 55.1721C61.9126 54.0479 64.3788 52.4001 66.4561 50.3227C68.5334 48.2454 70.1812 45.7793 71.3055 43.0651C72.4297 40.351 73.0084 37.4419 73.0084 34.5042L50.6375 34.5042V56.875Z" fill="#81E7B6"/>
<path d="M50.6375 12.1333C47.6997 12.1333 44.7907 12.712 42.0765 13.8362C39.3624 14.9605 36.8963 16.6083 34.8189 18.6856C32.7416 20.7629 31.0938 23.2291 29.9695 25.9432C28.8453 28.6574 28.2667 31.5664 28.2667 34.5042L50.6375 34.5042V12.1333Z" fill="#82EDAF"/>
<path d="M6.912 118.28C6.912 118.963 6.98667 119.464 7.136 119.784C7.28533 120.083 7.56267 120.296 7.968 120.424C8.39467 120.552 9.06667 120.616 9.984 120.616C10.048 120.616 10.08 120.68 10.08 120.808C10.08 120.936 10.048 121 9.984 121C9.10933 121 8.42667 120.989 7.936 120.968L5.152 120.936L2.816 120.968C2.38933 120.989 1.81333 121 1.088 121C1.024 121 0.992 120.936 0.992 120.808C0.992 120.68 1.024 120.616 1.088 120.616C1.77067 120.616 2.26133 120.563 2.56 120.456C2.88 120.349 3.09333 120.147 3.2 119.848C3.30667 119.528 3.36 119.048 3.36 118.408V103.592C3.36 102.952 3.30667 102.483 3.2 102.184C3.09333 101.885 2.88 101.683 2.56 101.576C2.24 101.448 1.74933 101.384 1.088 101.384C1.024 101.384 0.992 101.32 0.992 101.192C0.992 101.064 1.024 101 1.088 101L2.784 101.032C3.76533 101.075 4.544 101.096 5.12 101.096C5.632 101.096 6.24 101.064 6.944 101C7.22133 100.979 7.57333 100.957 8 100.936C8.42667 100.915 8.91733 100.904 9.472 100.904C11.648 100.904 13.3653 101.363 14.624 102.28C15.8827 103.176 16.512 104.573 16.512 106.472C16.512 107.795 16.1707 108.915 15.488 109.832C14.8053 110.749 13.92 111.443 12.832 111.912C11.7653 112.381 10.6667 112.616 9.536 112.616C8.96 112.616 8.45867 112.563 8.032 112.456C7.98933 112.456 7.968 112.403 7.968 112.296C7.968 112.232 7.97867 112.168 8 112.104C8.04267 112.04 8.08533 112.019 8.128 112.04C8.448 112.125 8.81067 112.168 9.216 112.168C10.1973 112.168 11.008 111.709 11.648 110.792C12.3093 109.875 12.64 108.573 12.64 106.888C12.64 105.203 12.2773 103.901 11.552 102.984C10.848 102.067 9.81333 101.608 8.448 101.608C7.85067 101.608 7.44533 101.747 7.232 102.024C7.01867 102.301 6.912 102.845 6.912 103.656V118.28ZM27.5205 108.328C28.0112 108.328 28.4805 108.509 28.9285 108.872C29.3978 109.213 29.6325 109.629 29.6325 110.12C29.6325 110.568 29.4938 110.941 29.2165 111.24C28.9392 111.517 28.5765 111.656 28.1285 111.656C27.8085 111.656 27.5418 111.592 27.3285 111.464C27.1365 111.336 26.9338 111.144 26.7205 110.888C26.5285 110.675 26.3578 110.525 26.2085 110.44C26.0805 110.333 25.9205 110.28 25.7285 110.28C25.5152 110.28 25.2805 110.365 25.0245 110.536C24.7898 110.685 24.4165 111.016 23.9045 111.528V118.408C23.9045 119.261 24.1072 119.848 24.5125 120.168C24.9178 120.467 25.6645 120.616 26.7525 120.616C26.8378 120.616 26.8805 120.68 26.8805 120.808C26.8805 120.936 26.8378 121 26.7525 121C26.0058 121 25.4192 120.989 24.9925 120.968L22.4005 120.936L20.5125 120.968C20.1925 120.989 19.7552 121 19.2005 121C19.1365 121 19.1045 120.936 19.1045 120.808C19.1045 120.68 19.1365 120.616 19.2005 120.616C19.8618 120.616 20.3098 120.467 20.5445 120.168C20.7792 119.848 20.8965 119.261 20.8965 118.408V112.392C20.8965 111.731 20.8112 111.251 20.6405 110.952C20.4912 110.632 20.2458 110.472 19.9045 110.472C19.5418 110.472 19.0298 110.621 18.3685 110.92H18.3045C18.2405 110.92 18.1872 110.867 18.1445 110.76C18.1232 110.653 18.1338 110.589 18.1765 110.568L22.6245 108.392C22.7525 108.349 22.8272 108.328 22.8485 108.328C23.0832 108.328 23.2965 108.552 23.4885 109C23.7018 109.427 23.8298 110.013 23.8725 110.76C24.7472 109.864 25.4618 109.235 26.0165 108.872C26.5925 108.509 27.0938 108.328 27.5205 108.328ZM45.8625 118.92C45.9265 118.92 45.9798 118.973 46.0225 119.08C46.0865 119.187 46.0865 119.251 46.0225 119.272L41.6065 121.416C41.5638 121.437 41.5105 121.448 41.4465 121.448C41.2545 121.448 41.0732 121.256 40.9025 120.872C40.7532 120.488 40.6572 119.965 40.6145 119.304C39.9105 119.965 39.2065 120.488 38.5025 120.872C37.7985 121.235 37.0198 121.416 36.1665 121.416C35.2918 121.416 34.4812 121.203 33.7345 120.776C33.0092 120.328 32.4332 119.677 32.0065 118.824C31.5798 117.971 31.3665 116.947 31.3665 115.752C31.3665 114.237 31.7185 112.915 32.4225 111.784C33.1265 110.632 34.0545 109.757 35.2065 109.16C36.3585 108.563 37.5958 108.264 38.9185 108.264C40.0705 108.264 41.1052 108.541 42.0225 109.096C42.5132 108.883 42.9292 108.605 43.2705 108.264C43.2918 108.243 43.3238 108.232 43.3665 108.232C43.4092 108.232 43.4518 108.253 43.4945 108.296C43.5585 108.317 43.5905 108.349 43.5905 108.392V117.512C43.5905 118.152 43.6545 118.611 43.7825 118.888C43.9318 119.144 44.1665 119.272 44.4865 119.272C44.7638 119.272 45.2012 119.155 45.7985 118.92H45.8625ZM37.7985 119.72C38.6518 119.72 39.5798 119.379 40.5825 118.696V118.376V111.784C40.5825 110.952 40.3478 110.269 39.8785 109.736C39.4305 109.203 38.8332 108.936 38.0865 108.936C37.0198 108.936 36.1772 109.469 35.5585 110.536C34.9612 111.603 34.6625 112.979 34.6625 114.664C34.6625 116.264 34.9292 117.512 35.4625 118.408C36.0172 119.283 36.7958 119.72 37.7985 119.72ZM59.598 108.264C59.6193 108.243 59.6513 108.232 59.694 108.232C59.7367 108.232 59.7793 108.253 59.822 108.296C59.886 108.317 59.918 108.349 59.918 108.392V123.24C59.918 125.245 59.3207 126.867 58.126 128.104C56.9313 129.363 55.2567 129.992 53.102 129.992C51.694 129.992 50.542 129.779 49.646 129.352C48.75 128.947 48.302 128.349 48.302 127.56C48.302 127.005 48.462 126.589 48.782 126.312C49.102 126.056 49.486 125.928 49.934 125.928C50.5313 125.928 50.9687 126.067 51.246 126.344C51.5447 126.621 51.8327 127.037 52.11 127.592C52.3873 128.168 52.6753 128.595 52.974 128.872C53.294 129.171 53.7847 129.32 54.446 129.32C55.1927 129.32 55.79 128.936 56.238 128.168C56.686 127.4 56.91 126.013 56.91 124.008V119.336C56.206 119.976 55.502 120.488 54.798 120.872C54.1153 121.235 53.3473 121.416 52.494 121.416C51.6193 121.416 50.8087 121.203 50.062 120.776C49.3367 120.328 48.7607 119.677 48.334 118.824C47.9073 117.971 47.694 116.947 47.694 115.752C47.694 114.237 48.046 112.915 48.75 111.784C49.454 110.632 50.382 109.757 51.534 109.16C52.686 108.563 53.9233 108.264 55.246 108.264C56.398 108.264 57.4327 108.541 58.35 109.096C58.8407 108.883 59.2567 108.605 59.598 108.264ZM54.126 119.72C54.9793 119.72 55.9073 119.379 56.91 118.696V111.784C56.91 110.952 56.6753 110.269 56.206 109.736C55.758 109.203 55.1607 108.936 54.414 108.936C53.3473 108.936 52.5047 109.469 51.886 110.536C51.2887 111.603 50.99 112.979 50.99 114.664C50.99 116.264 51.2567 117.512 51.79 118.408C52.3447 119.283 53.1233 119.72 54.126 119.72ZM77.83 118.92C77.894 118.92 77.9473 118.973 77.99 119.08C78.054 119.187 78.054 119.251 77.99 119.272L73.574 121.416C73.5313 121.437 73.478 121.448 73.414 121.448C73.222 121.448 73.0407 121.256 72.87 120.872C72.7207 120.488 72.6247 119.965 72.582 119.304C71.878 119.965 71.174 120.488 70.47 120.872C69.766 121.235 68.9873 121.416 68.134 121.416C67.2593 121.416 66.4487 121.203 65.702 120.776C64.9767 120.328 64.4007 119.677 63.974 118.824C63.5473 117.971 63.334 116.947 63.334 115.752C63.334 114.237 63.686 112.915 64.39 111.784C65.094 110.632 66.022 109.757 67.174 109.16C68.326 108.563 69.5633 108.264 70.886 108.264C72.038 108.264 73.0727 108.541 73.99 109.096C74.4807 108.883 74.8967 108.605 75.238 108.264C75.2593 108.243 75.2913 108.232 75.334 108.232C75.3767 108.232 75.4193 108.253 75.462 108.296C75.526 108.317 75.558 108.349 75.558 108.392V117.512C75.558 118.152 75.622 118.611 75.75 118.888C75.8993 119.144 76.134 119.272 76.454 119.272C76.7313 119.272 77.1687 119.155 77.766 118.92H77.83ZM69.766 119.72C70.6193 119.72 71.5473 119.379 72.55 118.696V118.376V111.784C72.55 110.952 72.3153 110.269 71.846 109.736C71.398 109.203 70.8007 108.936 70.054 108.936C68.9873 108.936 68.1447 109.469 67.526 110.536C66.9287 111.603 66.63 112.979 66.63 114.664C66.63 116.264 66.8967 117.512 67.43 118.408C67.9847 119.283 68.7633 119.72 69.766 119.72ZM89.0055 118.76C89.0908 118.76 89.1548 118.803 89.1975 118.888C89.2615 118.973 89.2615 119.037 89.1975 119.08C88.4082 119.869 87.6402 120.456 86.8935 120.84C86.1468 121.203 85.3575 121.384 84.5255 121.384C83.5868 121.384 82.7868 121.16 82.1255 120.712C81.4642 120.264 81.1335 119.507 81.1335 118.44V111.336C81.1335 110.675 81.0162 110.216 80.7815 109.96C80.5468 109.704 80.1202 109.576 79.5015 109.576C79.4802 109.576 79.4482 109.544 79.4055 109.48C79.3842 109.416 79.3735 109.352 79.3735 109.288C79.3735 109.203 79.3842 109.139 79.4055 109.096C79.4268 109.032 79.4588 109 79.5015 109C80.5895 108.957 81.4642 108.723 82.1255 108.296C82.8082 107.869 83.3308 107.219 83.6935 106.344C83.7362 106.259 83.8215 106.216 83.9495 106.216C84.0988 106.216 84.1735 106.259 84.1735 106.344V108.904C85.4108 108.883 86.7975 108.787 88.3335 108.616C88.3762 108.616 88.4188 108.701 88.4615 108.872C88.5255 109.021 88.5575 109.192 88.5575 109.384C88.5575 109.597 88.5148 109.811 88.4295 110.024C88.3655 110.216 88.2908 110.301 88.2055 110.28C86.8188 109.981 85.4748 109.821 84.1735 109.8V117.384C84.1735 118.195 84.3762 118.792 84.7815 119.176C85.2082 119.56 85.7628 119.752 86.4455 119.752C87.2988 119.752 88.1308 119.432 88.9415 118.792L89.0055 118.76ZM94.3475 105.16C93.7288 105.16 93.2488 104.989 92.9075 104.648C92.5662 104.307 92.3955 103.827 92.3955 103.208C92.3955 102.653 92.5662 102.216 92.9075 101.896C93.2702 101.555 93.7502 101.384 94.3475 101.384C94.9448 101.384 95.4035 101.544 95.7235 101.864C96.0435 102.184 96.2035 102.632 96.2035 103.208C96.2035 103.827 96.0435 104.307 95.7235 104.648C95.4035 104.989 94.9448 105.16 94.3475 105.16ZM91.2755 121C91.2115 121 91.1795 120.936 91.1795 120.808C91.1795 120.68 91.2115 120.616 91.2755 120.616C91.9368 120.616 92.3848 120.467 92.6195 120.168C92.8542 119.848 92.9715 119.261 92.9715 118.408V112.68C92.9715 111.955 92.8968 111.432 92.7475 111.112C92.5982 110.792 92.3528 110.632 92.0115 110.632C91.7342 110.632 91.3395 110.749 90.8275 110.984H90.7955C90.7102 110.984 90.6462 110.931 90.6035 110.824C90.5608 110.696 90.5715 110.621 90.6355 110.6L95.4675 108.36L95.5635 108.328C95.6702 108.328 95.7768 108.381 95.8835 108.488C95.9902 108.595 96.0435 108.691 96.0435 108.776V109.48C96.0008 110.333 95.9795 111.379 95.9795 112.616V118.408C95.9795 119.261 96.0968 119.848 96.3315 120.168C96.5875 120.467 97.0462 120.616 97.7075 120.616C97.7715 120.616 97.8035 120.68 97.8035 120.808C97.8035 120.936 97.7715 121 97.7075 121C97.1528 121 96.7155 120.989 96.3955 120.968L94.4755 120.936L92.5875 120.968C92.2675 120.989 91.8302 121 91.2755 121Z" fill="#16444E"/>
</svg>
