<svg width="114" height="47" viewBox="0 0 114 47" fill="none" xmlns="http://www.w3.org/2000/svg">
<path d="M44.184 28.96C44.184 29.472 44.24 29.848 44.352 30.088C44.464 30.312 44.672 30.472 44.976 30.568C45.296 30.664 45.8 30.712 46.488 30.712C46.536 30.712 46.56 30.76 46.56 30.856C46.56 30.952 46.536 31 46.488 31C45.832 31 45.32 30.992 44.952 30.976L42.864 30.952L41.112 30.976C40.792 30.992 40.36 31 39.816 31C39.768 31 39.744 30.952 39.744 30.856C39.744 30.76 39.768 30.712 39.816 30.712C40.328 30.712 40.696 30.672 40.92 30.592C41.16 30.512 41.32 30.36 41.4 30.136C41.48 29.896 41.52 29.536 41.52 29.056V17.944C41.52 17.464 41.48 17.112 41.4 16.888C41.32 16.664 41.16 16.512 40.92 16.432C40.68 16.336 40.312 16.288 39.816 16.288C39.768 16.288 39.744 16.24 39.744 16.144C39.744 16.048 39.768 16 39.816 16L41.088 16.024C41.824 16.056 42.408 16.072 42.84 16.072C43.224 16.072 43.68 16.048 44.208 16C44.416 15.984 44.68 15.968 45 15.952C45.32 15.936 45.688 15.928 46.104 15.928C47.736 15.928 49.024 16.272 49.968 16.96C50.912 17.632 51.384 18.68 51.384 20.104C51.384 21.096 51.128 21.936 50.616 22.624C50.104 23.312 49.44 23.832 48.624 24.184C47.824 24.536 47 24.712 46.152 24.712C45.72 24.712 45.344 24.672 45.024 24.592C44.992 24.592 44.976 24.552 44.976 24.472C44.976 24.424 44.984 24.376 45 24.328C45.032 24.28 45.064 24.264 45.096 24.28C45.336 24.344 45.608 24.376 45.912 24.376C46.648 24.376 47.256 24.032 47.736 23.344C48.232 22.656 48.48 21.68 48.48 20.416C48.48 19.152 48.208 18.176 47.664 17.488C47.136 16.8 46.36 16.456 45.336 16.456C44.888 16.456 44.584 16.56 44.424 16.768C44.264 16.976 44.184 17.384 44.184 17.992V28.96ZM59.6404 21.496C60.0084 21.496 60.3604 21.632 60.6964 21.904C61.0484 22.16 61.2244 22.472 61.2244 22.84C61.2244 23.176 61.1204 23.456 60.9124 23.68C60.7044 23.888 60.4324 23.992 60.0964 23.992C59.8564 23.992 59.6564 23.944 59.4964 23.848C59.3524 23.752 59.2004 23.608 59.0404 23.416C58.8964 23.256 58.7684 23.144 58.6564 23.08C58.5604 23 58.4404 22.96 58.2964 22.96C58.1364 22.96 57.9604 23.024 57.7684 23.152C57.5924 23.264 57.3124 23.512 56.9284 23.896V29.056C56.9284 29.696 57.0804 30.136 57.3844 30.376C57.6884 30.6 58.2484 30.712 59.0644 30.712C59.1284 30.712 59.1604 30.76 59.1604 30.856C59.1604 30.952 59.1284 31 59.0644 31C58.5044 31 58.0644 30.992 57.7444 30.976L55.8004 30.952L54.3844 30.976C54.1444 30.992 53.8164 31 53.4004 31C53.3524 31 53.3284 30.952 53.3284 30.856C53.3284 30.76 53.3524 30.712 53.4004 30.712C53.8964 30.712 54.2324 30.6 54.4084 30.376C54.5844 30.136 54.6724 29.696 54.6724 29.056V24.544C54.6724 24.048 54.6084 23.688 54.4804 23.464C54.3684 23.224 54.1844 23.104 53.9284 23.104C53.6564 23.104 53.2724 23.216 52.7764 23.44H52.7284C52.6804 23.44 52.6404 23.4 52.6084 23.32C52.5924 23.24 52.6004 23.192 52.6324 23.176L55.9684 21.544C56.0644 21.512 56.1204 21.496 56.1364 21.496C56.3124 21.496 56.4724 21.664 56.6164 22C56.7764 22.32 56.8724 22.76 56.9044 23.32C57.5604 22.648 58.0964 22.176 58.5124 21.904C58.9444 21.632 59.3204 21.496 59.6404 21.496ZM73.3969 29.44C73.4449 29.44 73.4849 29.48 73.5169 29.56C73.5649 29.64 73.5649 29.688 73.5169 29.704L70.2049 31.312C70.1729 31.328 70.1329 31.336 70.0849 31.336C69.9409 31.336 69.8049 31.192 69.6769 30.904C69.5649 30.616 69.4929 30.224 69.4609 29.728C68.9329 30.224 68.4049 30.616 67.8769 30.904C67.3489 31.176 66.7649 31.312 66.1249 31.312C65.4689 31.312 64.8609 31.152 64.3009 30.832C63.7569 30.496 63.3249 30.008 63.0049 29.368C62.6849 28.728 62.5249 27.96 62.5249 27.064C62.5249 25.928 62.7889 24.936 63.3169 24.088C63.8449 23.224 64.5409 22.568 65.4049 22.12C66.2689 21.672 67.1969 21.448 68.1889 21.448C69.0529 21.448 69.8289 21.656 70.5169 22.072C70.8849 21.912 71.1969 21.704 71.4529 21.448C71.4689 21.432 71.4929 21.424 71.5249 21.424C71.5569 21.424 71.5889 21.44 71.6209 21.472C71.6689 21.488 71.6929 21.512 71.6929 21.544V28.384C71.6929 28.864 71.7409 29.208 71.8369 29.416C71.9489 29.608 72.1249 29.704 72.3649 29.704C72.5729 29.704 72.9009 29.616 73.3489 29.44H73.3969ZM67.3489 30.04C67.9889 30.04 68.6849 29.784 69.4369 29.272V29.032V24.088C69.4369 23.464 69.2609 22.952 68.9089 22.552C68.5729 22.152 68.1249 21.952 67.5649 21.952C66.7649 21.952 66.1329 22.352 65.6689 23.152C65.2209 23.952 64.9969 24.984 64.9969 26.248C64.9969 27.448 65.1969 28.384 65.5969 29.056C66.0129 29.712 66.5969 30.04 67.3489 30.04ZM83.6985 21.448C83.7145 21.432 83.7385 21.424 83.7705 21.424C83.8025 21.424 83.8345 21.44 83.8665 21.472C83.9145 21.488 83.9385 21.512 83.9385 21.544V32.68C83.9385 34.184 83.4905 35.4 82.5945 36.328C81.6985 37.272 80.4425 37.744 78.8265 37.744C77.7705 37.744 76.9065 37.584 76.2345 37.264C75.5625 36.96 75.2265 36.512 75.2265 35.92C75.2265 35.504 75.3465 35.192 75.5865 34.984C75.8265 34.792 76.1145 34.696 76.4505 34.696C76.8985 34.696 77.2265 34.8 77.4345 35.008C77.6585 35.216 77.8745 35.528 78.0825 35.944C78.2905 36.376 78.5065 36.696 78.7305 36.904C78.9705 37.128 79.3385 37.24 79.8345 37.24C80.3945 37.24 80.8425 36.952 81.1785 36.376C81.5145 35.8 81.6825 34.76 81.6825 33.256V29.752C81.1545 30.232 80.6265 30.616 80.0985 30.904C79.5865 31.176 79.0105 31.312 78.3705 31.312C77.7145 31.312 77.1065 31.152 76.5465 30.832C76.0025 30.496 75.5705 30.008 75.2505 29.368C74.9305 28.728 74.7705 27.96 74.7705 27.064C74.7705 25.928 75.0345 24.936 75.5625 24.088C76.0905 23.224 76.7865 22.568 77.6505 22.12C78.5145 21.672 79.4425 21.448 80.4345 21.448C81.2985 21.448 82.0745 21.656 82.7625 22.072C83.1305 21.912 83.4425 21.704 83.6985 21.448ZM79.5945 30.04C80.2345 30.04 80.9305 29.784 81.6825 29.272V24.088C81.6825 23.464 81.5065 22.952 81.1545 22.552C80.8185 22.152 80.3705 21.952 79.8105 21.952C79.0105 21.952 78.3785 22.352 77.9145 23.152C77.4665 23.952 77.2425 24.984 77.2425 26.248C77.2425 27.448 77.4425 28.384 77.8425 29.056C78.2585 29.712 78.8425 30.04 79.5945 30.04ZM97.3725 29.44C97.4205 29.44 97.4605 29.48 97.4925 29.56C97.5405 29.64 97.5405 29.688 97.4925 29.704L94.1805 31.312C94.1485 31.328 94.1085 31.336 94.0605 31.336C93.9165 31.336 93.7805 31.192 93.6525 30.904C93.5405 30.616 93.4685 30.224 93.4365 29.728C92.9085 30.224 92.3805 30.616 91.8525 30.904C91.3245 31.176 90.7405 31.312 90.1005 31.312C89.4445 31.312 88.8365 31.152 88.2765 30.832C87.7325 30.496 87.3005 30.008 86.9805 29.368C86.6605 28.728 86.5005 27.96 86.5005 27.064C86.5005 25.928 86.7645 24.936 87.2925 24.088C87.8205 23.224 88.5165 22.568 89.3805 22.12C90.2445 21.672 91.1725 21.448 92.1645 21.448C93.0285 21.448 93.8045 21.656 94.4925 22.072C94.8605 21.912 95.1725 21.704 95.4285 21.448C95.4445 21.432 95.4685 21.424 95.5005 21.424C95.5325 21.424 95.5645 21.44 95.5965 21.472C95.6445 21.488 95.6685 21.512 95.6685 21.544V28.384C95.6685 28.864 95.7165 29.208 95.8125 29.416C95.9245 29.608 96.1005 29.704 96.3405 29.704C96.5485 29.704 96.8765 29.616 97.3245 29.44H97.3725ZM91.3245 30.04C91.9645 30.04 92.6605 29.784 93.4125 29.272V29.032V24.088C93.4125 23.464 93.2365 22.952 92.8845 22.552C92.5485 22.152 92.1005 21.952 91.5405 21.952C90.7405 21.952 90.1085 22.352 89.6445 23.152C89.1965 23.952 88.9725 24.984 88.9725 26.248C88.9725 27.448 89.1725 28.384 89.5725 29.056C89.9885 29.712 90.5725 30.04 91.3245 30.04ZM105.754 29.32C105.818 29.32 105.866 29.352 105.898 29.416C105.946 29.48 105.946 29.528 105.898 29.56C105.306 30.152 104.73 30.592 104.17 30.88C103.61 31.152 103.018 31.288 102.394 31.288C101.69 31.288 101.09 31.12 100.594 30.784C100.098 30.448 99.8501 29.88 99.8501 29.08V23.752C99.8501 23.256 99.7621 22.912 99.5861 22.72C99.4101 22.528 99.0901 22.432 98.6261 22.432C98.6101 22.432 98.5861 22.408 98.5541 22.36C98.5381 22.312 98.5301 22.264 98.5301 22.216C98.5301 22.152 98.5381 22.104 98.5541 22.072C98.5701 22.024 98.5941 22 98.6261 22C99.4421 21.968 100.098 21.792 100.594 21.472C101.106 21.152 101.498 20.664 101.77 20.008C101.802 19.944 101.866 19.912 101.962 19.912C102.074 19.912 102.13 19.944 102.13 20.008V21.928C103.058 21.912 104.098 21.84 105.25 21.712C105.282 21.712 105.314 21.776 105.346 21.904C105.394 22.016 105.418 22.144 105.418 22.288C105.418 22.448 105.386 22.608 105.322 22.768C105.274 22.912 105.218 22.976 105.154 22.96C104.114 22.736 103.106 22.616 102.13 22.6V28.288C102.13 28.896 102.282 29.344 102.586 29.632C102.906 29.92 103.322 30.064 103.834 30.064C104.474 30.064 105.098 29.824 105.706 29.344L105.754 29.32ZM109.761 19.12C109.297 19.12 108.937 18.992 108.681 18.736C108.425 18.48 108.297 18.12 108.297 17.656C108.297 17.24 108.425 16.912 108.681 16.672C108.953 16.416 109.313 16.288 109.761 16.288C110.209 16.288 110.553 16.408 110.793 16.648C111.033 16.888 111.153 17.224 111.153 17.656C111.153 18.12 111.033 18.48 110.793 18.736C110.553 18.992 110.209 19.12 109.761 19.12ZM107.457 31C107.409 31 107.385 30.952 107.385 30.856C107.385 30.76 107.409 30.712 107.457 30.712C107.953 30.712 108.289 30.6 108.465 30.376C108.641 30.136 108.729 29.696 108.729 29.056V24.76C108.729 24.216 108.673 23.824 108.561 23.584C108.449 23.344 108.265 23.224 108.009 23.224C107.801 23.224 107.505 23.312 107.121 23.488H107.097C107.033 23.488 106.985 23.448 106.953 23.368C106.921 23.272 106.929 23.216 106.977 23.2L110.601 21.52L110.673 21.496C110.753 21.496 110.833 21.536 110.913 21.616C110.993 21.696 111.033 21.768 111.033 21.832V22.36C111.001 23 110.985 23.784 110.985 24.712V29.056C110.985 29.696 111.073 30.136 111.249 30.376C111.441 30.6 111.785 30.712 112.281 30.712C112.329 30.712 112.353 30.76 112.353 30.856C112.353 30.952 112.329 31 112.281 31C111.865 31 111.537 30.992 111.297 30.976L109.857 30.952L108.441 30.976C108.201 30.992 107.873 31 107.457 31Z" fill="#16444E"/>
<path d="M15.5001 15.5C13.4646 15.5 11.449 15.9009 9.56847 16.6799C7.68792 17.4588 5.97921 18.6006 4.53991 20.0399C3.1006 21.4792 1.95888 23.1879 1.17993 25.0684C0.40098 26.949 6.09462e-05 28.9645 6.10352e-05 31L15.5001 31L15.5001 15.5Z" fill="#95F0BB"/>
<path d="M31 15.5C31 13.4645 30.5991 11.449 29.8201 9.56841C29.0412 7.68786 27.8995 5.97915 26.4602 4.53984C25.0208 3.10054 23.3121 1.95881 21.4316 1.17987C19.551 0.400919 17.5355 -8.8974e-08 15.5 0L15.5 15.5H31Z" fill="#3CB184"/>
<path d="M0.000123918 31C0.000123918 33.0355 0.401043 35.0511 1.17999 36.9316C1.95894 38.8122 3.10066 40.5209 4.53997 41.9602C5.97928 43.3995 7.68798 44.5412 9.56853 45.3202C11.4491 46.0991 13.4646 46.5 15.5001 46.5L15.5001 31H0.000123918Z" fill="#18CD98"/>
<path d="M15.5001 31C17.5356 31 19.5512 30.5991 21.4317 29.8201C23.3123 29.0412 25.021 27.8995 26.4603 26.4602C27.8996 25.0208 29.0413 23.3121 29.8203 21.4316C30.5992 19.551 31.0001 17.5355 31.0001 15.5L15.5001 15.5V31Z" fill="#81E7B6"/>
<path d="M15.5001 1.52588e-05C13.4646 1.52588e-05 11.449 0.400934 9.56847 1.17988C7.68792 1.95883 5.97921 3.10055 4.53991 4.53986C3.1006 5.97917 1.95888 7.68788 1.17993 9.56842C0.40098 11.449 6.09462e-05 13.4645 6.10352e-05 15.5L15.5001 15.5V1.52588e-05Z" fill="#82EDAF"/>
</svg>
