<svg width="31" height="31" viewBox="0 0 31 31" fill="none" xmlns="http://www.w3.org/2000/svg">
<path fill-rule="evenodd" clip-rule="evenodd" d="M30.2856 5.71429C30.2856 7.22981 29.6836 8.68326 28.612 9.7549C27.5403 10.8265 26.0869 11.4286 24.5714 11.4286C23.0558 11.4286 21.6024 10.8265 20.5308 9.7549C19.4591 8.68326 18.8571 7.22981 18.8571 5.71429C18.8571 4.19876 19.4591 2.74531 20.5308 1.67368C21.6024 0.602039 23.0558 0 24.5714 0C26.0869 0 27.5403 0.602039 28.612 1.67368C29.6836 2.74531 30.2856 4.19876 30.2856 5.71429ZM17.0514 1.59314C15.4791 1.11706 13.8172 1.01575 12.1988 1.29733C10.5804 1.57892 9.05034 2.23557 7.73128 3.2147C6.41221 4.19383 5.34076 5.46824 4.60271 6.93586C3.86466 8.40348 3.48053 10.0235 3.48108 11.6663V19.376C3.48108 19.5846 3.43999 19.7912 3.36016 19.9839C3.28032 20.1767 3.16331 20.3518 3.0158 20.4993C2.86829 20.6468 2.69316 20.7638 2.50043 20.8436C2.30769 20.9235 2.10112 20.9646 1.89251 20.9646C1.43785 20.9646 1.00182 21.1452 0.680325 21.4667C0.358834 21.7882 0.178223 22.2242 0.178223 22.6789C0.178223 23.1335 0.358834 23.5695 0.680325 23.891C1.00182 24.2125 1.43785 24.3931 1.89251 24.3931H26.1188C26.5735 24.3931 27.0095 24.2125 27.331 23.891C27.6525 23.5695 27.8331 23.1335 27.8331 22.6789C27.8331 22.2242 27.6525 21.7882 27.331 21.4667C27.0095 21.1452 26.5735 20.9646 26.1188 20.9646C25.6975 20.9646 25.2934 20.7972 24.9955 20.4993C24.6976 20.2014 24.5302 19.7973 24.5302 19.376V14.2857C23.0448 14.2793 21.5864 13.887 20.2983 13.1472C19.0101 12.4074 17.9363 11.3455 17.1822 10.0657C16.4281 8.78588 16.0195 7.33204 15.9966 5.84673C15.9737 4.36142 16.3371 2.89565 17.0514 1.59314ZM10.0068 29.1429C10.0068 28.6882 10.1874 28.2522 10.5089 27.9307C10.8304 27.6092 11.2664 27.4286 11.7211 27.4286H16.2925C16.7472 27.4286 17.1832 27.6092 17.5047 27.9307C17.8262 28.2522 18.0068 28.6882 18.0068 29.1429C18.0068 29.5975 17.8262 30.0336 17.5047 30.355C17.1832 30.6765 16.7472 30.8571 16.2925 30.8571H11.7211C11.2664 30.8571 10.8304 30.6765 10.5089 30.355C10.1874 30.0336 10.0068 29.5975 10.0068 29.1429Z" fill="#18CD98"/>
</svg>
