<svg width="69" height="69" viewBox="0 0 69 69" fill="none" xmlns="http://www.w3.org/2000/svg">
<g filter="url(#filter0_dd_51_172)">
<circle cx="34.5" cy="34.5" r="28.5" fill="#3CB184"/>
</g>
<circle cx="34.5002" cy="34.5" r="22.1667" fill="#F7FCFB"/>
<path fill-rule="evenodd" clip-rule="evenodd" d="M20.3335 35C20.3335 26.9 26.9002 20.3333 35.0002 20.3333C43.1002 20.3333 49.6668 26.9 49.6668 35C49.6668 43.1 43.1002 49.6667 35.0002 49.6667C26.9002 49.6667 20.3335 43.1 20.3335 35ZM29.6668 27C29.3132 27 28.9741 27.1405 28.724 27.3905C28.474 27.6406 28.3335 27.9797 28.3335 28.3333C28.3335 28.687 28.474 29.0261 28.724 29.2761C28.9741 29.5262 29.3132 29.6667 29.6668 29.6667H33.6668C34.1202 29.6667 34.8295 29.8133 35.3868 30.216C35.6402 30.3973 35.8828 30.644 36.0602 31H29.6628C29.3092 31 28.9701 31.1405 28.72 31.3905C28.47 31.6406 28.3295 31.9797 28.3295 32.3333C28.3295 32.687 28.47 33.0261 28.72 33.2761C28.9701 33.5262 29.3092 33.6667 29.6628 33.6667H36.0602C35.9037 33.9791 35.673 34.2483 35.3882 34.4507C34.8808 34.7988 34.2821 34.9899 33.6668 35H29.6628C29.3865 34.9999 29.1169 35.0856 28.8914 35.2454C28.6659 35.4052 28.4956 35.6311 28.4041 35.8918C28.3126 36.1526 28.3044 36.4354 28.3806 36.701C28.4568 36.9667 28.6137 37.2021 28.8295 37.3747L35.5002 42.708C35.6369 42.8174 35.7939 42.8989 35.9621 42.9476C36.1303 42.9964 36.3065 43.0116 36.4806 42.9923C36.6547 42.9729 36.8232 42.9195 36.9767 42.8351C37.1301 42.7506 37.2654 42.6368 37.3748 42.5C37.4843 42.3633 37.5657 42.2063 37.6145 42.0381C37.6632 41.8699 37.6784 41.6937 37.6591 41.5196C37.6398 41.3455 37.5864 41.1769 37.5019 41.0235C37.4174 40.8701 37.3036 40.7348 37.1668 40.6253L33.4642 37.6667H33.6642C34.5455 37.6667 35.8362 37.4133 36.9442 36.6147C37.9313 35.9081 38.6158 34.8555 38.8615 33.6667H40.3335C40.6871 33.6667 41.0263 33.5262 41.2763 33.2761C41.5264 33.0261 41.6668 32.687 41.6668 32.3333C41.6668 31.9797 41.5264 31.6406 41.2763 31.3905C41.0263 31.1405 40.6871 31 40.3335 31H38.8615C38.7618 30.5348 38.5971 30.0859 38.3722 29.6667H40.3335C40.6871 29.6667 41.0263 29.5262 41.2763 29.2761C41.5264 29.0261 41.6668 28.687 41.6668 28.3333C41.6668 27.9797 41.5264 27.6406 41.2763 27.3905C41.0263 27.1405 40.6871 27 40.3335 27H29.6668Z" fill="#3CB184"/>
<defs>
<filter id="filter0_dd_51_172" x="0" y="0" width="69" height="69" filterUnits="userSpaceOnUse" color-interpolation-filters="sRGB">
<feFlood flood-opacity="0" result="BackgroundImageFix"/>
<feColorMatrix in="SourceAlpha" type="matrix" values="0 0 0 0 0 0 0 0 0 0 0 0 0 0 0 0 0 0 127 0" result="hardAlpha"/>
<feOffset dx="2" dy="2"/>
<feGaussianBlur stdDeviation="2"/>
<feComposite in2="hardAlpha" operator="out"/>
<feColorMatrix type="matrix" values="0 0 0 0 0 0 0 0 0 0 0 0 0 0 0 0 0 0 0.25 0"/>
<feBlend mode="normal" in2="BackgroundImageFix" result="effect1_dropShadow_51_172"/>
<feColorMatrix in="SourceAlpha" type="matrix" values="0 0 0 0 0 0 0 0 0 0 0 0 0 0 0 0 0 0 127 0" result="hardAlpha"/>
<feOffset dx="-2" dy="-2"/>
<feGaussianBlur stdDeviation="2"/>
<feComposite in2="hardAlpha" operator="out"/>
<feColorMatrix type="matrix" values="0 0 0 0 0 0 0 0 0 0 0 0 0 0 0 0 0 0 0.25 0"/>
<feBlend mode="normal" in2="effect1_dropShadow_51_172" result="effect2_dropShadow_51_172"/>
<feBlend mode="normal" in="SourceGraphic" in2="effect2_dropShadow_51_172" result="shape"/>
</filter>
</defs>
</svg>
