<svg width="40" height="40" viewBox="0 0 40 40" fill="none" xmlns="http://www.w3.org/2000/svg">
<path d="M22 14H18.98C17.72 14 16.48 14.6 15.8 15.4L14 10H8.26L3.48 24H6.86L8.34 20H14V28H4C1.8 28 0 26.2 0 24V10C0 7.8 1.8 6 4 6H18C20.2 6 22 7.8 22 10V14ZM13.02 18H8.98L10.98 12.14L13.02 18ZM20 16H34C36.2 16 38 17.8 38 20V34C38 36.2 36.2 38 34 38H20C17.8 38 16 36.2 16 34V20C16 17.8 17.8 16 20 16ZM34.5 26V23.84H28.16V19.5H25.84V23.84H19.5V26H22.06C22.28 27.7 23.18 29.7 24.62 31.24C22.88 31.96 20.84 32.48 20 32.48C19.98 32.52 20.44 34.42 20.4 35.4C22.08 35.4 24.82 34.4 26.96 33.1C29.14 34.4 31.92 35.4 33.64 35.4C33.6 34.42 34.04 32.52 34.04 32.48C33.18 32.48 31.06 31.94 29.28 31.22C30.68 29.68 31.56 27.68 31.78 26H34.5ZM26.88 29.86C25.88 28.94 25.18 27.6 24.86 26H29.04C28.7 27.6 28.02 28.94 27.04 29.86L26.96 29.92C26.96 29.92 26.9 29.88 26.88 29.86Z" fill="#F8F8F8"/>
</svg>
